<svg width="50" height="50" viewBox="0 0 50 50" fill="none" xmlns="http://www.w3.org/2000/svg">
<circle cx="25" cy="25" r="25" fill="black"/>
<path d="M22.7596 15.5986H32.1126C32.8907 15.5986 38.6776 15.7202 38.6776 21.4342C38.6776 27.1482 32.5746 27.2211 32.1126 27.2211H29.2191L29.1285 34.1327C29.1285 34.23 29.0556 34.3516 28.8854 34.3516H25.7244C25.6029 34.3516 25.4813 34.23 25.4813 34.1327L25.5719 23.6225H32.1126C32.5989 23.6225 34.9818 23.5739 34.9818 21.4342C34.9818 19.2945 32.5503 19.1729 32.1126 19.1729H21.376L22.7596 15.5986Z" fill="#05FF00"/>
<path d="M20.518 21.5897L21.1128 20.1321H24.2153L23.6845 21.5897H20.518Z" fill="#05FF00"/>
<path d="M20.1664 22.4514L18.8674 25.6352L15.0743 15.7855C15.0499 15.6883 14.9527 15.6396 14.8311 15.6396H11.5243C11.3298 15.6396 11.2325 15.7855 11.3055 15.9314L18.6242 34.2183C18.7215 34.3886 19.0133 34.3886 19.0862 34.2183L23.3708 22.4514H20.1664Z" fill="#05FF00"/>
</svg>
